<svg xmlns="http://www.w3.org/2000/svg" viewBox="0 0 401.4 414.21"><defs><style>.cls-1{fill:#e11c2a;}.cls-1,.cls-7{stroke:#000;stroke-miterlimit:10;}.cls-2,.cls-7{fill:none;}.cls-2,.cls-3,.cls-6,.cls-8{stroke:#020202;}.cls-3,.cls-5{fill:#111;}.cls-4,.cls-6{fill:#183351;}</style></defs><g id="Layer_5" data-name="Layer 5"><polygon class="cls-1" points="59.11 276.91 395.37 0.43 210.57 107.36 59.15 276.91 59.11 276.91"/></g><g id="Layer_3" data-name="Layer 3"><path class="cls-2" d="M807.15,407.23" transform="translate(-732.77 -301.79)"/><path class="cls-2" d="M908,510.62" transform="translate(-732.77 -301.79)"/><path class="cls-2" d="M949.79,506.47" transform="translate(-732.77 -301.79)"/><path class="cls-3" d="M1035.94,406.38" transform="translate(-732.77 -301.79)"/><path class="cls-3" d="M961.53,549.11" transform="translate(-732.77 -301.79)"/><path class="cls-3" d="M948.6,504.68" transform="translate(-732.77 -301.79)"/><path class="cls-3" d="M847,316.68a65.89,65.89,0,0,0-28,9.41c-14.68,9.21-19.43,19.52-22,25" transform="translate(-732.77 -301.79)"/><path class="cls-3" d="M856.76,498.64,881.92,471l-26.71-50.69c-.69-1.61-3.26-7-9.05-9.19a14.14,14.14,0,0,0-4-.84h-26.9a4.23,4.23,0,0,0-3.48,1.56,4,4,0,0,0-.73,2.75Z" transform="translate(-732.77 -301.79)"/><path class="cls-3" d="M1084.4,410l-29.75,0a9.94,9.94,0,0,0-3.78.47,10.47,10.47,0,0,0-5.53,4.54c-24,45.68-50.7,96.12-74.76,141.81-.92,2.21-2,4.46-9,8.52a18,18,0,0,1-4.46,1.9,20.31,20.31,0,0,1-6.45.72,24.9,24.9,0,0,1-12.43-1.79,26,26,0,0,1-13.36-13.66l-27-51.2-27.64,22.17,28.14,51.77c3,4.88,11.44,16.94,27.07,23.35a58.62,58.62,0,0,0,22.56,4.25,64.28,64.28,0,0,0,13.71-1.77,60.1,60.1,0,0,0,15.31-5.63,53.16,53.16,0,0,0,19.4-18.81s89.92-162.93,89.66-164.36A3.35,3.35,0,0,0,1084.4,410Z" transform="translate(-732.77 -301.79)"/></g><g id="Layer_4" data-name="Layer 4"><polyline class="cls-4" points="185.71 124.2 176.3 134.96 170.73 128.78"/><polyline class="cls-5" points="128.16 228.96 139.04 219.7 143.65 226.64"/><polyline class="cls-5" points="117.89 203.5 120.77 189.51 128.67 192.14"/><polyline class="cls-4" points="205.16 162.21 200.21 175.6 192.79 171.81"/><polyline class="cls-4" points="254.16 122.59 265.33 113.69 269.71 120.77"/><polyline class="cls-4" points="332.56 59.36 328.16 72.95 320.6 69.47"/><path class="cls-6" d="M800.45,393l1.26,2.31h42a18.85,18.85,0,0,1,14.94,10.34l28.65,54.26,22.76-25c-13.87-26-26.38-49.45-26.38-49.45s-1.51-3.86-8.82-10.47a27.38,27.38,0,0,0-6.11-4.58,23.4,23.4,0,0,0-7.42-2.39l-64.54,0a5.15,5.15,0,0,0-5.8,6.18Z" transform="translate(-732.77 -301.79)"/><path class="cls-6" d="M1100.92,368.09l-42.92,0-60.42,48.45L957,492.59l-10.22,11.15L929.4,471.18,904,491.55l29.45,55.77a17.07,17.07,0,0,0,14.81,8.62c8.09-.06,12.82-6.11,13.36-6.83l74.51-142.81a24.14,24.14,0,0,1,14.45-10.93h41.7a5.83,5.83,0,0,0,3.23-.76,5.7,5.7,0,0,0,1.75-1.61q4.74-9.36,9.46-18.73a5.38,5.38,0,0,0-.89-4.14A5.3,5.3,0,0,0,1100.92,368.09Z" transform="translate(-732.77 -301.79)"/><polyline points="348.5 24.26 335.88 30.95 332.88 23.18"/><polyline class="cls-5" points="299.21 51.71 305.87 39.08 312.73 43.8"/><polyline class="cls-5" points="360.66 37.03 356.25 50.62 348.69 47.13"/><polyline points="0 334.72 16.34 334.72 33.53 372.5 52.6 334.72 67.92 334.72 33.96 403.82"/><path class="cls-7" d="M860.26,705.62" transform="translate(-732.77 -301.79)"/><path d="M845.79,636.51l-36,69.11v1.15h15.83l4.47-7.66H857l2.68,7.25,17.83.41h.77Zm-10.6,48.81,9.45-19.92,9.45,19.92Z" transform="translate(-732.77 -301.79)"/><polyline points="168.51 404.97 167.4 336.85 210.55 379.48 209.7 342.21 224.17 342.38 225.7 414.21 182.21 371.53 182.3 404.97"/><path d="M1033.7,660.3c-.5-.34-11.1-7.25-21.7-2-1.52.74-8.33,4.34-10.34,12.38-2.28,9.14,3.6,16.11,4.47,17.1a20.77,20.77,0,0,0,14.42,6.77c7.82.21,15.25-4.39,19.28-11.74l10.85,9.19c-.74,1.16-11.3,17.15-30.13,17.1-13.54,0-22.25-8.34-24-10.08-10.12-10.1-14.95-27.88-6.76-41.87,8.82-15.08,27.07-16,29.23-16.09,15.58-.54,25.89,9.1,27.83,11l-10.08,11.36Z" transform="translate(-732.77 -301.79)"/><path d="M1076.34,643.23" transform="translate(-732.77 -301.79)"/><polygon points="343.57 404.91 394.38 404.91 401.4 392.27 355.32 392.27 355.32 378.16 376.51 378.16 382.57 366.23 381.43 366.23 356.21 366.23 356.21 365.46 356.21 353.59 389.4 353.59 396.43 341.44 343.57 341.44 343.57 404.91"/></g><g id="Layer_6" data-name="Layer 6"><path class="cls-8" d="M797,355a3.29,3.29,0,0,0,2.78,1h41.36a21.23,21.23,0,0,1,18.44-11.51h174.56l5,4.17L1074.5,329a73.3,73.3,0,0,0-33-13l-195.06.71-49.24,34.2a3.35,3.35,0,0,0-.89,2.6A3,3,0,0,0,797,355Z" transform="translate(-732.77 -301.79)"/><path class="cls-8" d="M1089.21,343,1073,356h20.88a1.6,1.6,0,0,0,1.2-.23c.82-.58,1-2.22.06-4A73.36,73.36,0,0,0,1089.21,343Z" transform="translate(-732.77 -301.79)"/></g></svg>